Coordinates
version=1
nRows=9
nColumns=63
inDegrees=yes

Units are S.I. units (second, meters, Newtons, ...)
If the header above contains a line with 'inDegrees', this indicates whether rotational values are in degrees (yes) or radians (no).

endheader
time	pelvis_tilt	pelvis_list	pelvis_rotation	pelvis_tx	pelvis_ty	pelvis_tz	hip_flexion_r	hip_adduction_r	hip_rotation_r	knee_angle_r	knee_angle_r_beta	ankle_angle_r	subtalar_angle_r	mtp_angle_r	hip_flexion_l	hip_adduction_l	hip_rotation_l	knee_angle_l	knee_angle_l_beta	ankle_angle_l	subtalar_angle_l	mtp_angle_l	L5_S1_Flex_Ext	L5_S1_Lat_Bending	L5_S1_axial_rotation	L4_L5_Flex_Ext	L4_L5_Lat_Bending	L4_L5_axial_rotation	L3_L4_Flex_Ext	L3_L4_Lat_Bending	L3_L4_axial_rotation	L2_L3_Flex_Ext	L2_L3_Lat_Bending	L2_L3_axial_rotation	L1_L2_Flex_Ext	L1_L2_Lat_Bending	L1_L2_axial_rotation	L1_T12_Flex_Ext	L1_T12_Lat_Bending	L1_T12_axial_rotation	Abs_r3	Abs_r2	Abs_r1	Abs_t1	Abs_t2	neck_flexion	neck_bending	neck_rotation	arm_flex_r	arm_add_r	arm_rot_r	elbow_flex_r	pro_sup_r	wrist_flex_r	wrist_dev_r	arm_flex_l	arm_add_l	arm_rot_l	elbow_flex_l	pro_sup_l	wrist_flex_l	wrist_dev_l
      5.85000000	     -4.04088507	     -5.59726514	     98.95198644	      0.07486268	      0.45127127	      0.86377968	      7.11649166	     -1.07122621	    -10.01779845	      4.50529061	      0.07863215	     27.74395669	     13.48022362	      0.00000000	     11.02165974	      0.71440693	      2.78330922	      9.70391243	      0.16936522	     23.88138229	      1.74016789	      0.00000000	     -0.12500235	     -0.34285507	     -0.18500162	     -0.23214187	     -0.45599724	     -0.19656423	     -0.20536636	     -0.83361781	     -0.19656423	     -0.14286519	     -0.83361781	     -0.16187642	     -0.11607718	     -0.69915005	     -0.15031382	     -0.07142634	     -0.53108250	     -0.13875122	     -0.89287930	     -3.87844508	     -1.02892353	      0.00000000	      0.00000000	      7.16769590	     -2.40088211	      6.97805126	      7.83726472	    -12.86202767	     40.72376166	     27.51035974	     88.21715664	     -9.68543878	      2.96168087	     -0.09663795	    -13.68963488	     26.76697597	     57.75960991	     87.93182935	    -12.64925116	     -3.28112455
      5.86666667	     -4.22954568	     -5.59197744	     98.80387518	      0.07542163	      0.45173123	      0.86360272	      7.11832483	     -1.23159670	    -10.00123176	      4.54158611	      0.07926563	     27.73596096	     13.68846810	      0.00000000	     10.82415785	      0.87640810	      2.93792093	      9.43843722	      0.16473181	     23.70644887	      1.53959621	      0.00000000	     -0.12245885	     -0.37760787	     -0.19693705	     -0.22741834	     -0.50221847	     -0.20924561	     -0.20118765	     -0.91811578	     -0.20924561	     -0.13995822	     -0.91811578	     -0.17231992	     -0.11371529	     -0.77001797	     -0.16001135	     -0.06997299	     -0.58491459	     -0.14770278	     -0.87471135	     -4.27157576	     -1.09530477	      0.00000000	      0.00000000	      6.99100223	     -2.00767814	      7.05601964	      9.12200223	    -13.09601245	     45.68953148	     26.52237273	     88.38198235	    -10.45068598	      1.46988058	     -0.31418503	    -13.90123646	     26.69683637	     57.97514619	     87.94651081	    -12.60308471	     -2.78574877
      5.88333333	     -4.37112507	     -5.69271070	     99.07449751	      0.07517070	      0.45205487	      0.86330050	      7.19899823	     -1.48174670	    -11.23849658	      4.74175027	      0.08275915	     27.80692287	     14.84589826	      0.00000000	     10.78821290	      1.12985869	      3.87883486	      9.25707378	      0.16156642	     23.28747356	      0.65124730	      0.00000000	     -0.10642843	     -0.40720932	     -0.31445437	     -0.19764824	     -0.54158839	     -0.33410776	     -0.17485127	     -0.99008873	     -0.33410776	     -0.12163706	     -0.99008873	     -0.27514757	     -0.09882944	     -0.83038124	     -0.25549417	     -0.06081321	     -0.63076723	     -0.23584077	     -0.76020766	     -4.60643324	     -1.74890085	      0.00000000	      0.00000000	      6.78670647	     -1.58391402	      7.40456287	     10.19114882	    -13.19857070	     49.94822495	     25.72514136	     88.51850841	    -11.89293046	     -0.47180771	     -0.77592909	    -13.93138316	     26.10051553	     58.39268945	     88.03033837	    -12.88024219	     -2.15574856
      5.90000000	     -4.67805325	     -5.67305895	     98.61027651	      0.07591719	      0.45255576	      0.86267299	      7.17168761	     -1.75074959	    -10.80748348	      4.92279605	      0.08591900	     27.65325180	     14.65229468	      0.00000000	     10.51559673	      1.35893018	      3.40925331	      9.08703954	      0.15859876	     22.98024620	      0.51692175	      0.00000000	     -0.11474551	     -0.45371533	     -0.29384972	     -0.21309388	     -0.60344139	     -0.31221533	     -0.18851540	     -1.10316346	     -0.31221533	     -0.13114264	     -1.10316346	     -0.25711850	     -0.10655268	     -0.92521630	     -0.23875290	     -0.06556558	     -0.70280505	     -0.22038729	     -0.81961570	     -5.13251858	     -1.63430398	      0.00000000	      0.00000000	      6.73089204	     -1.26657704	      7.62592924	     11.31859918	    -13.28408478	     54.69996364	     24.96521452	     88.38749253	    -14.12749106	     -2.61804256	     -0.87901976	    -14.15135884	     25.82654016	     59.00564366	     88.16779754	    -12.39538497	     -0.66489660
      5.91666667	     -4.93442883	     -5.77999579	     98.51177631	      0.07570218	      0.45287931	      0.86185311	      7.22744742	     -2.07928043	    -10.90213913	      5.14951505	      0.08987599	     27.55609995	     14.66955475	      0.00000000	     10.44784196	      1.63993094	      3.15584806	      9.05183301	      0.15798429	     22.64338164	      0.43637667	      0.00000000	     -0.10602538	     -0.48879143	     -0.34319890	     -0.19689973	     -0.65009261	     -0.36464883	     -0.17418909	     -1.18844749	     -0.36464883	     -0.12117640	     -1.18844749	     -0.30029904	     -0.09845516	     -0.99674349	     -0.27884911	     -0.06058290	     -0.75713793	     -0.25739917	     -0.75732866	     -5.52930645	     -1.90876932	      0.00000000	      0.00000000	      6.65169258	     -0.91389544	      8.27422923	     11.13841107	    -13.65758660	     54.15701765	     25.91344842	     88.22616293	    -15.01591489	     -3.93026326	     -0.88607924	    -14.24039755	     25.74809569	     59.57764116	     88.32448010	    -12.56757137	     -0.12754603
      5.93333333	     -5.05314918	     -5.77877359	     98.38676627	      0.07566007	      0.45359558	      0.86099767	      7.17692306	     -2.21892978	    -11.04967379	      5.32092330	      0.09286763	     27.26707005	     14.66358954	      0.00000000	     10.32660039	      1.75032497	      2.59057130	      9.11931546	      0.15916208	     21.99300277	      0.16738533	      0.00000000	     -0.10574588	     -0.50922094	     -0.42706674	     -0.19638067	     -0.67726385	     -0.45375842	     -0.17372990	     -1.23811980	     -0.45375842	     -0.12085696	     -1.23811980	     -0.37368340	     -0.09819562	     -1.03840334	     -0.34699173	     -0.06042319	     -0.78878324	     -0.32030006	     -0.75533223	     -5.76040913	     -2.37521712	      0.00000000	      0.00000000	      6.30411201	     -0.84343817	      8.57334942	     11.09706181	    -14.00718847	     53.47555496	     26.90028264	     87.92724738	    -15.44781348	     -4.80441536	     -0.78871848	    -14.38823416	     25.81494938	     60.28909509	     88.50943044	    -12.61351149	      0.21339004
      5.95000000	     -5.33508032	     -6.03663499	     98.12611888	      0.07515800	      0.45356069	      0.85974205	      7.47869284	     -2.65756190	    -11.71082770	      5.70224637	      0.09952297	     27.55200048	     15.79053855	      0.00000000	     10.31902934	      2.10667864	      2.43235811	      9.04348385	      0.15783857	     21.50340672	     -0.56411496	      0.00000000	     -0.07947373	     -0.54402314	     -0.30334808	     -0.14759066	     -0.72355078	     -0.32230733	     -0.13056739	     -1.32273787	     -0.32230733	     -0.09083052	     -1.32273787	     -0.26542957	     -0.07379930	     -1.10937200	     -0.24647031	     -0.04541129	     -0.84269185	     -0.22751106	     -0.56767289	     -6.15409861	     -1.68713101	      0.00000000	      0.00000000	      6.38185263	     -0.36961779	      8.75590987	      8.06085800	    -14.32922711	     42.96307764	     29.85605214	     87.90816799	    -14.15767167	     -6.96145915	      0.01480821	    -14.69886255	     27.21156447	     61.93611511	     88.84432814	    -11.83750629	      4.66713227
      5.96666667	     -5.51535820	     -6.14281382	     97.96585423	      0.07464866	      0.45396966	      0.85847312	      7.54671913	     -2.91527235	    -11.89339216	      5.90304958	      0.10302765	     27.60476148	     16.22989261	      0.00000000	     10.20377919	      2.35359864	      2.26381656	      9.02666967	      0.15754511	     20.83075703	     -1.52766307	      0.00000000	     -0.06445666	     -0.56561411	     -0.29591968	     -0.11970246	     -0.75226677	     -0.31441466	     -0.10589584	     -1.37523416	     -0.31441466	     -0.07366751	     -1.37523416	     -0.25892972	     -0.05985445	     -1.15340030	     -0.24043474	     -0.03683053	     -0.87613626	     -0.22193976	     -0.46040745	     -6.39833999	     -1.64581648	      0.00000000	      0.00000000	      6.30522768	     -0.19329631	      8.98647123	      6.53429004	    -14.73116572	     37.90040455	     32.00902420	     87.33241575	    -12.62598993	     -8.59216947	      0.52185292	    -15.13124958	     28.46253190	     63.52895657	     89.07922655	    -10.43737056	      7.08578102
      5.98333333	     -5.69468971	     -6.22311542	     97.79384975	      0.07415004	      0.45438177	      0.85711021	      7.56764460	     -3.15212962	    -11.94693681	      6.06070937	      0.10577933	     27.64389383	     16.56294144	      0.00000000	     10.04147452	      2.58873533	      2.01201730	      8.98041197	      0.15673776	     20.24049482	     -2.37250258	      0.00000000	     -0.04863050	     -0.58727882	     -0.28585571	     -0.09031170	     -0.78108083	     -0.30372169	     -0.07989505	     -1.42790972	     -0.30372169	     -0.05557980	     -1.42790972	     -0.25012374	     -0.04515828	     -1.19757897	     -0.23225776	     -0.02778747	     -0.90969489	     -0.21439178	     -0.34736280	     -6.64341546	     -1.58984369	      0.00000000	      0.00000000	      6.26316315	     -0.08429736	      9.07686645	      5.31791250	    -15.39208100	     34.47864686	     34.08083265	     85.72165909	    -10.32019768	    -10.21079299	      0.91841367	    -15.80551571	     29.98259849	     65.57200128	     89.27202687	     -8.11320632	      9.45559523
